<svg version="1.1" xmlns="http://www.w3.org/2000/svg" xmlns:xlink="http://www.w3.org/1999/xlink" width="1182.8" height="1279.10175" viewBox="0,0,1182.8,1279.10175"><defs><radialGradient cx="240" cy="179.90791" r="639.55087" gradientUnits="userSpaceOnUse" id="color-1"><stop offset="0" stop-color="#000000"/><stop offset="1" stop-color="#122225"/></radialGradient></defs><g transform="translate(351.4,459.64296)"><g data-paper-data="{&quot;isPaintingLayer&quot;:true}" fill="url(#color-1)" fill-rule="nonzero" stroke="none" stroke-width="1" stroke-linecap="butt" stroke-linejoin="miter" stroke-miterlimit="10" stroke-dasharray="" stroke-dashoffset="0" style="mix-blend-mode: normal"><path d="M494,-457.1c32.5,6.5 65.4,26.4 91.8,55.4c11.2,12.4 21.4,25.5 36.6,47.7c26.8,38.8 36.2,48.2 72.2,71.8c13.9,9.2 31.8,20.9 39.7,26c28.1,18.2 43.8,35.7 58.7,65.7c10.3,20.8 12.9,31.6 13,52.5c0,26.1 -5.7,65.1 -13.5,90.9c-11.6,38.9 -30.7,64.8 -69,93.6c-33.8,25.4 -66,42.7 -109,58.5c-26.7,9.9 -48.7,13.6 -131,22.5c-62.3,6.7 -85.1,9.6 -88.3,11.4c-1.2,0.7 -1.2,1 -0.1,1.7c0.8,0.5 48.6,0.9 110.4,0.9c111.3,0 119.6,0.2 150,4.1c23.5,3 43.7,8.2 66.5,17.1c46.3,18.2 74.6,44.5 97.6,90.8c10.9,22 11.7,25.9 11.8,54c0,24.7 -1.7,44.8 -5.9,70.1c-4.5,26.7 -8.8,39.9 -18.1,55.4c-3.2,5.2 -7.8,13.5 -10.4,18.5l-4.7,9l-11,6.5c-13.3,8 -19.2,12.8 -29.4,24.4c-20.4,23 -36.8,48 -54.4,82.7c-24.1,47.7 -31.1,58.1 -49.6,73.3c-4.7,4 -11.3,10.4 -14.7,14.3c-6.7,7.7 -16.3,14.6 -32.2,23.1c-30.3,16.1 -57.9,19.6 -95.3,12.1c-28.4,-5.7 -48.8,-15.8 -76.7,-37.9c-31.7,-25.1 -54.1,-49.7 -83.2,-91.3c-21.3,-30.4 -23.8,-36.9 -35.9,-91.2c-8.8,-40.1 -16.3,-67.3 -26.7,-97.5c-2.1,-6 -2.2,-5.9 -4.2,3.5c-3.5,15.8 -4.1,53.1 -1.5,97c5.2,89.8 15.7,136.7 43.5,194c12.1,25 20.3,35.7 50.8,66.2c17.4,17.3 19.2,19.5 23,27.3c5.5,11.1 6.1,16.8 3.3,32c-1.2,6.3 -2.6,13.1 -3.1,15.1c-1.8,6.5 -2.3,6.6 -19.8,2.9c-20.1,-4.1 -29.4,-7.1 -41.2,-13c-15.2,-7.6 -26,-16 -44.6,-34.5c-23.9,-23.7 -35.8,-40.3 -49.9,-69.7c-19.3,-40.4 -33.1,-86.3 -37.5,-124.8c-1.8,-15.5 -2.4,-68.1 -1.1,-101c1.5,-38.9 4.9,-112.9 5.7,-123.9l0.6,-8.4l-3.8,0.7c-10.7,2 -16.5,7.8 -20.4,20.3c-3.9,12.5 -9.9,44.6 -19.5,102.8c-13,79.7 -22.3,118.1 -34,141.6c-9.5,19.1 -21.1,35.8 -32.3,46.7c-24.9,24.3 -58.4,43.8 -85.1,49.4c-23.3,5 -77,1 -111.9,-8.3c-25.8,-6.8 -39.8,-14.9 -59.9,-34.6c-21.3,-20.9 -48.8,-57 -65.1,-85.5c-2.7,-4.8 -8.9,-17.3 -13.8,-27.8l-8.9,-19.1l-17.2,-15c-18.1,-15.7 -29.8,-28 -45.5,-47.6c-21.6,-27.1 -36.6,-49.5 -39.3,-58.7c-2,-6.5 -2,-27 0,-48.6c5.5,-61.2 16.1,-92 43.5,-126.5c26.1,-32.7 71.1,-63.3 106,-72c26.1,-6.5 61.8,-9.3 145,-11.5c45.2,-1.2 69.2,-2.5 87,-4.6c16.6,-1.9 21.7,-3.5 25.9,-7.8l3.4,-3.6l-3.4,-1.4c-7.2,-3 -33.7,-6.2 -104.4,-12.6c-87.4,-7.9 -126.5,-14.2 -167.1,-27c-30.9,-9.8 -73,-31.9 -92.6,-48.7c-12.6,-10.8 -31,-32.6 -36.1,-42.9c-6,-11.9 -9,-31.9 -9.1,-58.9c0,-22.1 1.3,-32 6.6,-50c7.9,-26.9 20.1,-46.9 43.3,-71.3c11.2,-11.8 23,-22.2 50.5,-44.8c24.7,-20.2 26.6,-21.7 31.6,-24.3c2.9,-1.5 4.9,-3.6 6.9,-7.4c5.9,-10.9 21.8,-32.5 49.9,-67.7c29.9,-37.5 42.8,-51.3 65.8,-70.1c25.6,-21 48.6,-33.3 75.6,-40.8c31,-8.5 54.2,-8.3 82.7,0.8c34.3,11 63.4,28.2 87.1,51.6c20.3,20.1 32.8,40.7 41.3,68.4c8.5,27.5 11.4,46.2 24.6,160.1c9.8,84.5 13,107.6 14.6,104.7c2,-3.5 5,-33.6 9.4,-94.2c4.6,-63.9 5.5,-75.8 7.6,-98.5c4,-44.4 6.5,-59.3 11.5,-69.2c7.2,-14.2 28.2,-45.5 40.4,-60c22.3,-26.8 56.2,-52.9 90.5,-69.8c21.5,-10.6 33.5,-14.3 54.5,-17c11.6,-1.4 39.9,-0.4 51,1.9z"/></g></g></svg>